<svg width="45" height="45" viewBox="0 0 45 45" fill="none" xmlns="http://www.w3.org/2000/svg">
<rect width="45" height="45" rx="5" fill="white"/>
<path d="M22.5 10C20.8585 10 19.233 10.3313 17.7165 10.9751C16.1999 11.6189 14.8219 12.5625 13.6612 13.7521C11.317 16.1545 10 19.4128 10 22.8103C10 28.4725 13.5875 33.2764 18.55 34.9802C19.175 35.0826 19.375 34.6855 19.375 34.3396V32.1747C15.9125 32.9433 15.175 30.4581 15.175 30.4581C14.6 28.9721 13.7875 28.575 13.7875 28.575C12.65 27.7807 13.875 27.8064 13.875 27.8064C15.125 27.896 15.7875 29.1258 15.7875 29.1258C16.875 31.073 18.7125 30.4965 19.425 30.1891C19.5375 29.3564 19.8625 28.7928 20.2125 28.4725C17.4375 28.1522 14.525 27.0506 14.525 22.1698C14.525 20.7479 15 19.6078 15.8125 18.6982C15.6875 18.378 15.25 17.0457 15.9375 15.3163C15.9375 15.3163 16.9875 14.9704 19.375 16.6229C20.3625 16.3411 21.4375 16.2002 22.5 16.2002C23.5625 16.2002 24.6375 16.3411 25.625 16.6229C28.0125 14.9704 29.0625 15.3163 29.0625 15.3163C29.75 17.0457 29.3125 18.378 29.1875 18.6982C30 19.6078 30.475 20.7479 30.475 22.1698C30.475 27.0634 27.55 28.1394 24.7625 28.4597C25.2125 28.8568 25.625 29.6382 25.625 30.8296V34.3396C25.625 34.6855 25.825 35.0955 26.4625 34.9802C31.425 33.2636 35 28.4725 35 22.8103C35 21.1281 34.6767 19.4623 34.0485 17.908C33.4203 16.3538 32.4996 14.9416 31.3388 13.7521C30.1781 12.5625 28.8001 11.6189 27.2835 10.9751C25.767 10.3313 24.1415 10 22.5 10V10Z" fill="black"/>
</svg>
